<defs>
<font horiz-adv-x="449" ><font-face
    font-family="cambo-regular"
    units-per-em="1000"
    panose-1="2 0 0 0 0 0 0 0 0 0"
    ascent="879"
    descent="-243"
    alphabetic="0" />
<missing-glyph horiz-adv-x="253" />
<glyph unicode=" " glyph-name="space" horiz-adv-x="253" />
<glyph unicode="!" glyph-name="exclam" horiz-adv-x="217" d="M131 206L75 196Q75 223 76 297T78 415Q78 586 58 674Q81 692 122 692Q182 692 182 611Q182 574 159 424T131 206ZM125 -7T101 -7T63 9T49 48T63 86T101 102Q125 102 139 87T154 48T140 9Z" />
<glyph unicode="&quot;" glyph-name="quotedbl" horiz-adv-x="294" d="M95 513H64Q35 653 35 684Q35 705 47 716T79 728Q98 728 110 716T123 684Q123 671 116 628T102 549L95 513ZM231 513H200Q171 653 171 684Q171 705 183 716T215 728Q234 728 246 716T259 684Q259
671 252 628T238 549L231 513Z" />
<glyph unicode="#" glyph-name="numbersign" horiz-adv-x="608" d="M117 5L150 130H27L38 187H166L202 323H83L94 380H218L254 514L309 501L276 380H409L445 514L500 501L467 380H577L566 323H452L415 187H521L510 130H399L362 -9L308 5L341 130H208L171 -9L117
5ZM224 187H357L393 323H261L224 187Z" />
<glyph unicode="$" glyph-name="dollar" horiz-adv-x="531" d="M258 -49V23Q165 23 113 59T60 159Q60 183 77 198T119 214Q149 214 166 195Q159 174 159 157Q159 121 186 99T258 74V294Q230 305 221 308T188 323T153 341T126 363T101 392T88 425T81 468Q81 532
130 573T258 619V692L264 699Q281 699 301 694V618Q369 612 414 580T460 505Q460 475 447 457T412 439Q384 439 360 457Q371 474 371 496Q371 523 352 542T301 567V369Q332 357 350 349T395 325T435 293T460 252T471 196Q471 125 426 80T301 25V-47L295 -54Q278
-54 258 -49ZM258 386V568Q170 560 170 473Q170 443 192 424T258 386ZM301 276V78Q382 95 382 173Q382 237 301 276Z" />
<glyph unicode="%" glyph-name="percent" horiz-adv-x="762" d="M165 22L534 668L592 640L220 -11L165 22ZM187 340Q224 340 237 374T251 475T238 575T187 609Q151 609 138 576T124 475T137 374T187 340ZM187 298Q115 298 78 345T41 475T77 604T187 650T297 604T334
475T297 345T187 298ZM574 35Q611 35 624 69T638 170T625 270T574 304Q538 304 525 271T511 170T524 69T574 35ZM564 -7Q428 -7 428 170Q428 253 464 299T574 345T684 299T721 170Q721 88 680 41T564 -7Z" />
<glyph unicode="&amp;" glyph-name="ampersand" horiz-adv-x="762" d="M329 424V372Q251 363 206 320T160 208Q160 49 360 49Q459 49 521 102T583 259Q583 330 553 392Q504 390 483 379T462 345Q462 320 483 302Q463 282 435 282Q411 282 396 299T381 345Q381
390 426 414T558 438Q665 438 665 487Q665 512 644 530Q664 550 692 550Q716 550 731 534T746 492Q746 396 592 393Q628 323 628 245Q628 126 552 61T346 -5Q214 -5 137 51T60 203Q60 349 202 396Q116 435 116 530Q116 594 173 637T314 681Q395 681 450 645T505
554Q505 522 491 503T453 483Q422 483 399 502Q410 522 410 545Q410 581 383 604T314 627Q267 627 239 601T210 529Q210 488 238 457T329 424Z" />
<glyph unicode="&apos;" glyph-name="quotesingle" horiz-adv-x="158" d="M95 513H64Q35 653 35 684Q35 705 47 716T79 728Q98 728 110 716T123 684Q123 671 116 628T102 549L95 513Z" />
<glyph unicode="(" glyph-name="parenleft" horiz-adv-x="291" d="M266 -97L241 -123Q233 -117 220 -106T171 -54T110 33T62 156T40 314T60 471T110 596T170 682T220 736L241 752L266 726Q114 567 114 315Q114 62 266 -97Z" />
<glyph unicode=")" glyph-name="parenright" horiz-adv-x="291" d="M50 -123L25 -97Q177 62 177 315Q177 567 25 726L50 752Q58 746 71 735T120 683T181 596T229 473T251 314Q251 254 240 198T211 99T172 19T129 -43T90 -87T61 -114L50 -123Z" />
<glyph unicode="*" glyph-name="asterisk" horiz-adv-x="373" d="M170 574Q140 571 110 558T69 544Q52 544 41 555T30 583T41 611T69 622Q78 622 109 609T171 592Q155 614 133 630T99 658T88 687Q88 702 99 713T128 724Q152 724 158 711T169 663T186 601Q198 629
203 663T214 711T245 724Q261 724 272 712T284 685Q284 668 273 658T240 630T202 592Q230 595 262 608T304 622Q321 622 332 611T343 583T332 555T304 544Q294 544 262 557T202 574Q219 550 241 534T273 508T284 481Q284 465 273 453T244 441Q222 441 211 462Q206
470 203 503T186 565Q172 536 169 503T162 462Q149 441 128 441Q111 441 100 453T88 480Q88 493 95 503T113 519T139 539T170 574Z" />
<glyph unicode="+" glyph-name="plus" horiz-adv-x="545" d="M237 87V268H62V325H237V506H302V325H483V268H302V87H237Z" />
<glyph unicode="," glyph-name="comma" horiz-adv-x="208" d="M75 -137L57 -112Q118 -71 118 -18Q118 18 87 18Q84 18 68 14Q55 27 55 53Q55 75 72 89T115 104Q144 104 161 83T178 28Q178 -74 75 -137Z" />
<glyph unicode="-" glyph-name="hyphen" horiz-adv-x="359" d="M30 241V299H329V241H30Z" />
<glyph unicode="." glyph-name="period" horiz-adv-x="198" d="M125 -5T101 -5T63 11T49 50T63 88T101 104Q125 104 139 89T154 50T140 11Z" />
<glyph unicode="/" glyph-name="slash" horiz-adv-x="387" d="M-10 -115L327 759L387 737L50 -137L-10 -115Z" />
<glyph unicode="0" glyph-name="zero" horiz-adv-x="594" d="M210 47T297 47T415 116T446 324Q446 462 415 530T297 599T179 531T148 324Q148 185 179 116ZM420 -6T297 -6T112 81T50 324T112 565T297 652T482 566T544 324T482 82Z" />
<glyph unicode="1" glyph-name="one" horiz-adv-x="429" d="M42 0L45 37Q139 47 189 68V545H47V591Q155 602 247 650L283 636V68Q321 48 416 37L412 0H42Z" />
<glyph unicode="2" glyph-name="two" horiz-adv-x="533" d="M51 0V61Q230 215 297 305T365 479Q365 602 256 602Q208 602 179 574T150 503Q150 470 172 441Q151 418 117 418Q89 418 71 437T52 497Q52 558 112 605T256 652Q353 652 409 603T465 469Q465 387 396
296T164 79H491V0H51Z" />
<glyph unicode="3" glyph-name="three" horiz-adv-x="521" d="M191 316V363Q272 365 315 399T359 497Q359 548 333 575T259 603T185 577T158 512Q158 490 169 471Q144 452 115 452Q92 452 78 471T64 521Q64 576 120 614T261 653Q349 653 403 610T458 497Q458 385
320 341Q466 306 466 176Q466 96 407 45T251 -7Q152 -7 95 32T38 139Q38 167 56 182T100 198Q128 198 151 180Q142 156 142 134Q142 93 172 68T256 43Q311 43 341 79T372 176Q372 241 326 278T191 316Z" />
<glyph unicode="4" glyph-name="four" horiz-adv-x="538" d="M28 162L20 198L241 642Q303 642 331 617L105 222H330V396Q356 397 375 409T401 441H425V223L518 203V162H421V1H330V162H28Z" />
<glyph unicode="5" glyph-name="five" horiz-adv-x="532" d="M113 314L84 344L112 630L132 646Q219 643 292 643Q353 643 425 645L446 629Q444 590 438 567H168L150 382Q214 410 276 410Q373 410 429 357T486 208Q486 115 425 53T264 -9Q171 -9 111 30T51 130Q51
161 67 178T112 196Q142 196 164 178Q155 157 155 135Q155 94 185 68T264 41Q392 41 392 207Q392 279 357 318T257 357Q189 357 113 314Z" />
<glyph unicode="6" glyph-name="six" horiz-adv-x="542" d="M408 660L425 622Q314 577 249 514T161 354Q222 392 293 392Q384 392 440 340T497 203Q497 110 437 52T278 -6Q165 -6 108 59T50 245Q50 405 146 509T408 660ZM151 281Q150 269 150 245Q150 44 278 44Q335
44 366 85T397 202Q397 268 368 305T283 342Q206 342 151 281Z" />
<glyph unicode="7" glyph-name="seven" horiz-adv-x="481" d="M25 628L40 645Q135 643 242 643L448 645L467 598Q457 584 442 560T386 469T314 344T258 219T232 115Q232 61 269 34Q233 -8 199 -8Q170 -8 149 20T128 91Q128 108 130 124T136 155T148 189T164 224T187
265T214 308T249 361T289 419T337 488T392 567H106Q88 515 83 452Q72 449 62 449T41 452Q39 478 35 518T28 587T25 628Z" />
<glyph unicode="8" glyph-name="eight" horiz-adv-x="566" d="M182 344Q81 394 81 489Q81 563 137 607T284 652T427 611T480 497Q480 456 451 419T371 353Q437 324 474 283T511 174Q511 91 450 43T286 -6Q178 -6 117 39T55 169Q55 271 182 344ZM228 325Q152 275
152 174Q152 114 187 79T286 44Q346 44 380 79T414 174Q414 194 409 210T392 240T370 262T338 281T305 296T266 311T228 325ZM319 375Q388 420 388 498Q388 547 359 575T283 603Q231 603 202 575T173 496Q173 477 182 461T201 434T235 411T273 393T319 375Z" />
<glyph unicode="9" glyph-name="nine" horiz-adv-x="537" d="M130 -11L113 27Q223 72 288 134T376 294Q315 257 245 257Q154 257 98 309T41 446Q41 539 101 597T260 655Q373 655 430 590T488 404Q488 244 392 140T130 -11ZM387 368Q387 373 387 385T388 404Q388
605 260 605Q203 605 172 564T141 447Q141 381 170 344T255 307Q331 307 387 368Z" />
<glyph unicode=":" glyph-name="colon" horiz-adv-x="211" d="M137 7T113 7T75 23T61 62T75 100T113 116Q137 116 151 101T166 62T152 23ZM137 360T113 360T75 376T61 415T75 453T113 469Q137 469 151 454T166 415T152 376Z" />
<glyph unicode=";" glyph-name="semicolon" horiz-adv-x="220" d="M82 -137L64 -112Q125 -71 125 -18Q125 18 94 18Q91 18 75 14Q62 27 62 53Q62 75 79 89T122 104Q151 104 168 83T185 28Q185 -74 82 -137ZM145 360T121 360T83 376T69 415T83 453T121 469Q145
469 159 454T174 415T160 376Z" />
<glyph unicode="&lt;" glyph-name="less" horiz-adv-x="570" d="M65 261V316L478 512L505 457L150 288L505 120L478 65L65 261Z" />
<glyph unicode="=" glyph-name="equal" horiz-adv-x="545" d="M67 180V237H478V180H67ZM67 334V391H478V334H67Z" />
<glyph unicode="&gt;" glyph-name="greater" horiz-adv-x="570" d="M92 65L65 120L420 288L65 457L92 512L505 315V261L92 65Z" />
<glyph unicode="?" glyph-name="question" horiz-adv-x="428" d="M226 214Q204 196 179 196T140 215T126 263Q126 303 144 335T190 391T244 437T289 491T308 561Q308 596 283 617T220 639Q187 639 166 626T144 584Q144 566 156 545Q135 513 104 513Q51 513 51
575Q51 629 100 657T215 685Q296 685 344 652T393 548Q393 506 375 471T332 410T281 362T238 314T220 261Q220 240 226 214ZM205 -7T181 -7T143 9T129 48T143 86T181 102Q205 102 219 87T234 48T220 9Z" />
<glyph unicode="@" glyph-name="at" horiz-adv-x="960" d="M645 -95L675 -134Q595 -186 481 -186Q290 -186 175 -65T60 238T178 540T491 662Q684 662 796 557T908 288Q908 160 857 79T709 -3Q593 -3 565 54Q504 1 427 1Q368 1 336 31T304 117Q304 249 481 264L556
270V343Q556 393 537 416T477 440Q441 440 421 428T401 392Q401 370 432 358Q432 306 372 306Q344 306 328 323T312 366Q312 419 357 449T477 480Q557 480 601 444T646 343V117Q646 48 715 48Q760 48 786 118T812 288Q812 431 732 523T491 616Q340 616 248 508T156
238T245 -31T481 -140Q574 -140 645 -95ZM556 103V224L485 218Q442 214 418 189T393 126Q393 48 453 48Q501 48 556 103Z" />
<glyph unicode="A" glyph-name="A" horiz-adv-x="709" d="M0 0L6 40Q59 47 88 68L310 677H392L632 67Q657 48 709 40L704 0H419L425 40Q489 47 520 67L459 227H216L159 66Q192 48 259 40L254 0H0ZM236 283H438L333 557L236 283Z" />
<glyph unicode="B" glyph-name="B" horiz-adv-x="650" d="M43 0L49 40Q111 47 146 68V608Q111 629 43 636L48 676H329Q572 676 572 507Q572 395 454 360Q523 339 562 296T601 191Q601 103 537 52T357 0H43ZM241 53H357Q429 53 466 88T503 190T460 293T330 330H241V53ZM241
383H331Q407 383 442 413T478 505T442 596T328 626Q298 626 241 623V383Z" />
<glyph unicode="C" glyph-name="C" horiz-adv-x="605" d="M533 173L583 155Q567 112 540 80T487 31T431 6T384 -5T354 -7Q195 -7 122 76T48 336Q48 682 354 682Q407 682 454 669T535 623T570 542Q570 506 552 482T508 458Q486 458 469 469T446 500Q466 529 466
554Q466 590 436 608T355 627Q248 627 201 559T154 336T200 115T354 48Q371 48 389 51T437 66T492 104T533 173Z" />
<glyph unicode="D" glyph-name="D" horiz-adv-x="710" d="M43 0L49 40Q111 47 146 68V608Q110 628 43 636L48 676H292Q478 676 570 595T663 338Q663 160 570 80T286 0H43ZM241 53H304Q431 53 493 117T556 338Q556 493 495 558T307 623Q277 623 260 623T241 622V53Z" />
<glyph unicode="E" glyph-name="E" horiz-adv-x="633" d="M43 0L49 40Q120 48 146 68V608Q110 628 43 636L48 676H558L567 514Q555 509 537 509Q526 509 521 510Q507 575 471 619H241V370L396 381Q439 384 456 452H490V242H456Q441 317 395 320L241 331V61H497Q533
109 548 182Q562 184 569 184Q574 184 592 182L582 0H43Z" />
<glyph unicode="F" glyph-name="F" horiz-adv-x="600" d="M43 0L49 40Q120 48 146 68V608Q110 628 43 636L48 676H558L567 514Q552 509 537 509Q526 509 521 510Q507 575 471 619H241V370L396 381Q439 384 456 452H490V242H456Q441 317 395 320L241 331V68Q272
48 344 40L339 0H43Z" />
<glyph unicode="G" glyph-name="G" horiz-adv-x="658" d="M483 71V267L378 275V315L576 330V43Q456 -7 344 -7Q192 -7 120 76T48 336Q48 681 354 681Q408 681 455 668T539 621T576 535Q576 503 557 481T514 458Q492 458 475 469T452 500Q472 529 472 554Q472 588
438 607T355 626Q248 626 201 558T154 336T198 116T344 48Q416 48 483 71Z" />
<glyph unicode="H" glyph-name="H" horiz-adv-x="796" d="M43 0L49 40Q111 47 146 68V608Q110 628 43 636L48 676H344L338 636Q276 629 241 608V375H555V608Q519 628 452 636L457 676H753L747 636Q685 629 650 608V68Q686 48 753 40L748 0H452L458 40Q520 47 555
68V319H241V68Q277 48 344 40L339 0H43Z" />
<glyph unicode="I" glyph-name="I" horiz-adv-x="401" d="M50 0L56 40Q118 47 153 68V608Q117 628 50 636L55 676H351L345 636Q283 629 248 608V68Q284 48 351 40L346 0H50Z" />
<glyph unicode="J" glyph-name="J" horiz-adv-x="360" d="M33 -179L21 -146Q78 -121 112 -80T146 33V608Q110 628 43 636L48 676H344L338 636Q276 629 241 608V49Q241 -45 188 -98T33 -179Z" />
<glyph unicode="K" glyph-name="K" horiz-adv-x="677" d="M43 0L49 40Q111 47 146 68V608Q110 628 43 636L48 676H344L338 636Q276 629 241 608V68Q277 48 344 40L339 0H43ZM485 51L250 359L451 584Q460 593 460 604Q460 630 396 634L403 676H653L649 636Q572
631 544 595L350 379L573 87Q608 49 677 41L671 0H503Q503 26 485 51Z" />
<glyph unicode="L" glyph-name="L" horiz-adv-x="566" d="M43 0L49 40Q111 47 146 68V608Q110 628 43 636L48 676H344L338 636Q276 629 241 608V61H471Q479 71 485 86T495 111T504 141T510 164L553 158L526 0H43Z" />
<glyph unicode="M" glyph-name="M" horiz-adv-x="947" d="M39 0L45 40Q107 47 142 68V608Q106 628 39 636L44 676H266L481 133L688 676H908L902 636Q840 629 805 608V68Q841 48 908 40L903 0H611L617 40Q679 47 714 68H710V566L498 0H434L211 575V68Q247 48 314
40L309 0H39Z" />
<glyph unicode="N" glyph-name="N" horiz-adv-x="759" d="M30 0L36 40Q98 47 133 68V608Q97 628 30 636L35 676H213L572 177V608Q536 628 469 636L474 676H744L738 636Q676 629 641 608V0H576L202 520V68Q238 48 305 40L300 0H30Z" />
<glyph unicode="O" glyph-name="O" horiz-adv-x="688" d="M239 48T344 48T492 116T535 338T492 559T344 627T197 560T154 338T196 116ZM640 -6T344 -6T48 338Q48 681 344 681T640 338Q640 -6 344 -6Z" />
<glyph unicode="P" glyph-name="P" horiz-adv-x="610" d="M44 0L50 40Q112 47 147 68V608Q111 628 44 636L49 676H338Q574 676 574 487Q574 380 502 337T291 294H242V68Q278 48 345 40L340 0H44ZM242 343H291Q477 343 477 489Q477 560 441 595T338 631Q302 631
242 622V343Z" />
<glyph unicode="Q" glyph-name="Q" horiz-adv-x="688" d="M321 -5Q48 7 48 338Q48 681 344 681T640 338Q640 32 407 -1Q426 -50 469 -88T569 -146Q571 -150 571 -155Q571 -169 559 -179Q392 -149 321 -5ZM239 48T344 48T492 116T535 338T492 559T344 627T197 560T154
338T196 116Z" />
<glyph unicode="R" glyph-name="R" horiz-adv-x="683" d="M48 0L54 40Q116 47 151 68V608Q116 629 48 636L53 676H342Q588 676 588 497Q588 363 442 328Q474 308 505 245L588 68Q616 49 677 41L671 0H509L417 225Q391 287 371 300T283 314H246V68Q273 51 349 40L344
0H48ZM246 363H295Q491 363 491 499Q491 631 342 631Q302 631 246 622V363Z" />
<glyph unicode="S" glyph-name="S" horiz-adv-x="567" d="M71 48V222L125 228Q137 130 163 70Q222 47 283 47Q343 47 379 78T415 164Q415 201 397 228T349 271T284 302T213 332T148 369T100 424T81 506Q81 587 139 635T300 684Q382 684 441 645T500 549Q500 481
446 481Q405 481 384 512Q407 533 407 566Q407 593 379 611T299 629Q240 629 207 603T173 528Q173 494 192 469T240 428T306 398T379 366T445 327T494 268T513 182Q513 91 447 42T269 -8Q214 -8 156 11T71 48Z" />
<glyph unicode="T" glyph-name="T" horiz-adv-x="588" d="M144 0L150 40Q212 47 247 68V627Q160 626 114 621Q94 594 83 559T70 497Q54 495 44 495Q38 495 22 497V679Q162 676 294 676L566 679V497Q550 495 544 495Q534 495 518 497Q514 561 474 620Q418 626 342
627V68Q378 48 445 40L440 0H144Z" />
<glyph unicode="U" glyph-name="U" horiz-adv-x="772" d="M137 223V608Q102 629 34 636L39 676H337L331 636Q269 628 234 608V223Q234 130 274 89T403 48Q488 48 535 95T582 229V608Q547 629 479 636L484 676H754L748 636Q686 628 651 608V229Q651 115 587 54T403
-8Q263 -8 200 47T137 223Z" />
<glyph unicode="V" glyph-name="V" horiz-adv-x="699" d="M311 0L81 609Q52 628 0 636L5 676H290L284 636Q222 629 187 608L360 131L533 609Q497 628 432 636L437 676H699L693 636Q635 628 604 608L375 0H311Z" />
<glyph unicode="W" glyph-name="W" horiz-adv-x="1027" d="M272 0L103 609Q67 628 2 636L7 676H309L303 636Q242 629 207 608L329 130L499 669H556L731 139L855 608Q819 628 752 636L757 676H1029L1023 636Q958 629 924 608L755 0H679L513 507L351 0H272Z" />
<glyph unicode="X" glyph-name="X" horiz-adv-x="704" d="M-2 0L4 40Q48 43 74 55T121 94L304 337L114 600Q101 617 81 624T18 636L23 676H324L318 636Q256 630 233 607L371 415L516 608Q481 630 431 636L436 676H679L673 636Q605 630 580 596L407 366L605 92Q636
49 707 40L702 0H398L404 40Q474 40 497 70L340 287L174 67Q192 40 275 40L270 0H-2Z" />
<glyph unicode="Y" glyph-name="Y" horiz-adv-x="646" d="M171 0L177 40Q242 47 279 68V264L89 600Q67 629 -2 636L3 676H294L288 636Q224 628 194 612L340 347L488 611Q454 628 386 636L391 676H648L642 636Q578 634 556 604L374 271V68Q411 48 482 40L477 0H171Z" />
<glyph unicode="Z" glyph-name="Z" horiz-adv-x="604" d="M46 -4L42 49L421 620Q409 620 379 620T331 621Q211 621 158 617Q120 584 107 500Q93 498 84 498Q77 498 65 500L52 656L80 680Q224 676 332 676Q426 676 538 680L547 638L159 56Q188 55 257 55Q379 55
430 56Q481 118 499 192Q513 194 523 194Q532 194 546 192L537 -3Q464 0 256 0L46 -4Z" />
<glyph unicode="[" glyph-name="bracketleft" horiz-adv-x="310" d="M100 -121V749H285V715L169 705V-76L285 -86V-121H100Z" />
<glyph unicode="\" glyph-name="backslash" horiz-adv-x="390" d="M330 -121L0 737L60 759L390 -99L330 -121Z" />
<glyph unicode="]" glyph-name="bracketright" horiz-adv-x="310" d="M25 -121V-86L141 -76V705L25 715V749H210V-121H25Z" />
<glyph unicode="^" glyph-name="asciicircum" horiz-adv-x="527" d="M40 300L236 643H291L487 300L432 273L263 568L95 273L40 300Z" />
<glyph unicode="_" glyph-name="underscore" horiz-adv-x="539" d="M0 -108V-51H539V-108H0Z" />
<glyph unicode="`" glyph-name="grave" horiz-adv-x="215" d="M173 565L61 655Q34 677 34 697Q34 711 45 722T73 734Q96 734 107 716L197 591L173 565Z" />
<glyph unicode="a" glyph-name="a" horiz-adv-x="508" d="M345 0L334 48Q275 -8 187 -8Q123 -8 88 24T52 116Q52 186 101 226T246 273L331 279V367Q331 421 310 445T241 470Q156 470 156 421Q156 394 189 381Q189 330 127 330Q99 330 82 347T65 392Q65 448 112
480T241 513Q327 513 375 475T423 367V66Q448 47 498 37L494 0H345ZM331 99V235L250 228Q202 224 175 196T147 125Q147 37 215 37Q269 37 331 99Z" />
<glyph unicode="b" glyph-name="b" horiz-adv-x="550" d="M89 0V598Q89 632 72 645T14 661L17 693Q58 700 160 730L181 719V438Q224 513 305 513Q411 513 460 444T509 255Q509 138 451 65T284 -8Q217 -8 162 45Q147 23 140 0H89ZM181 221V92Q239 38 288 38Q327
38 353 56T391 110T407 178T411 255Q411 304 408 336T395 401T363 450T305 467Q265 467 239 447T201 388T185 311T181 221Z" />
<glyph unicode="c" glyph-name="c" horiz-adv-x="469" d="M391 133L435 118Q417 61 372 28T267 -5Q149 -5 95 56T41 251Q41 510 272 510Q346 510 392 479T438 396Q438 370 421 351T381 332Q361 332 345 343T325 371Q339 393 339 410Q339 437 321 454T272 471Q204
471 173 419T141 251Q141 137 170 88T267 38Q356 38 391 133Z" />
<glyph unicode="d" glyph-name="d" horiz-adv-x="555" d="M374 0L366 62Q323 -7 233 -7Q41 -7 41 242Q41 374 102 443T278 513Q320 513 366 495V590Q366 630 350 644T291 661L294 693Q335 700 437 730L458 719V66Q485 46 533 37L529 0H374ZM366 253V445Q328 467
275 467Q210 467 173 408T136 242Q136 138 162 89T243 39Q366 39 366 253Z" />
<glyph unicode="e" glyph-name="e" horiz-adv-x="486" d="M141 261V245Q141 207 143 181T152 125T173 79T211 50T270 38Q346 38 396 97L430 63Q369 -8 266 -8Q145 -8 94 59T42 256Q42 376 98 444T262 513Q366 513 408 457T453 290L431 261H141ZM141 301L356 309Q356
393 335 431T258 469Q144 469 141 301Z" />
<glyph unicode="f" glyph-name="f" horiz-adv-x="366" d="M49 0L53 39Q96 46 124 66V450H44L39 487Q93 496 124 506V565Q124 655 161 709T280 764Q333 764 372 735T412 662Q412 630 395 613T356 595Q338 595 325 606T307 637Q327 657 327 676Q327 693 313 705T273
717Q203 717 203 632Q203 615 209 571T216 506H328V450H216V66Q241 48 298 37L294 0H49Z" />
<glyph unicode="g" glyph-name="g" horiz-adv-x="522" d="M105 103L194 166Q130 181 95 225T59 333Q59 513 257 513Q329 513 376 487Q416 499 416 529Q416 553 386 568Q386 584 400 594T437 604Q461 604 476 590T491 551Q491 485 415 457Q455 411 455 333Q455
254 402 207T257 160H242L187 93Q188 69 206 60T265 50H310Q410 50 456 12T503 -85Q503 -235 275 -235Q161 -235 104 -199T46 -99Q46 -45 64 -20T129 32Q105 57 105 103ZM204 204T257 204T333 235T357 336T334 438T257 470T181 438T157 336T180 235ZM285 0H193Q144
-33 144 -85Q144 -191 275 -191Q405 -191 405 -85Q405 0 285 0Z" />
<glyph unicode="h" glyph-name="h" horiz-adv-x="587" d="M33 0L37 39Q80 46 108 66V590Q108 630 92 644T33 661L36 693Q77 700 179 730L200 719V449Q256 513 332 513Q410 513 454 474T498 364V66Q523 47 573 37L569 0H332L335 37Q375 43 406 66V354Q406 461 314
461Q281 461 250 440T200 385V66Q227 46 275 37L271 0H33Z" />
<glyph unicode="i" glyph-name="i" horiz-adv-x="299" d="M37 0L41 39Q84 46 112 66V376Q112 416 96 430T37 447L40 479Q81 486 183 516L204 505V66Q231 46 279 37L275 0H37ZM152 593Q96 593 96 656Q96 718 152 718Q209 718 209 656Q209 593 152 593Z" />
<glyph unicode="j" glyph-name="j" horiz-adv-x="306" d="M160 593Q104 593 104 656Q104 718 160 718Q217 718 217 656Q217 593 160 593ZM125 79H217V-35Q217 -77 213 -108T196 -170T158 -216T94 -233Q43 -233 11 -213T-22 -150Q-22 -125 -8 -108T29 -91Q59 -91
71 -112Q55 -126 55 -147Q55 -164 65 -175T95 -186Q138 -186 138 -116Q138 -81 132 -27T125 79ZM125 79V376Q125 416 109 430T50 447L53 479Q94 486 196 516L217 505V79H125Z" />
<glyph unicode="k" glyph-name="k" horiz-adv-x="549" d="M35 0L39 39Q82 46 110 66V590Q110 630 94 644T35 661L38 693Q79 700 181 730L202 719V298L341 446Q352 457 360 472T371 496L374 506H518L521 474Q448 471 406 427L310 328L467 68Q502 46 564 37L560
0H406L249 265L202 217V66Q229 46 277 37L273 0H35Z" />
<glyph unicode="l" glyph-name="l" horiz-adv-x="302" d="M33 0L37 39Q80 46 108 66V590Q108 630 92 644T33 661L36 693Q77 700 179 730L200 719V66Q227 46 275 37L271 0H33Z" />
<glyph unicode="m" glyph-name="m" horiz-adv-x="855" d="M34 0L38 39Q81 46 109 66V374Q109 414 93 428T34 445L37 477Q59 481 169 513L188 503L196 447Q204 457 216 469T260 497T324 513Q421 513 462 443Q532 513 603 513T719 474T765 351V66Q790 47 840 37L836
0H599L602 37Q642 43 673 66V354Q673 461 592 461Q556 461 525 435T483 377V66Q508 47 558 37L554 0H317L320 37Q360 43 391 66V354Q391 461 310 461Q274 461 243 435T201 377V66Q228 46 276 37L272 0H34Z" />
<glyph unicode="n" glyph-name="n" horiz-adv-x="594" d="M33 0L37 39Q80 46 108 66V374Q108 414 92 428T33 445L36 477Q58 481 168 513L187 503L197 436Q253 513 339 513Q417 513 461 474T505 364V66Q530 47 580 37L576 0H339L342 37Q382 43 413 66V354Q413 461
321 461Q284 461 250 436T200 371V66Q227 46 275 37L271 0H33Z" />
<glyph unicode="o" glyph-name="o" horiz-adv-x="528" d="M264 42Q332 42 362 91T392 253Q392 364 362 413T264 463T167 414T137 253T167 92T264 42ZM374 -8T264 -8T98 58T41 253Q41 380 97 446T264 513T430 447T487 253Q487 125 431 59Z" />
<glyph unicode="p" glyph-name="p" horiz-adv-x="562" d="M29 -228L33 -189Q76 -182 104 -162V374Q104 414 88 428T29 445L32 477Q54 481 164 513L183 503L192 438Q236 512 329 512Q521 512 521 263Q521 131 460 62T284 -8Q242 -8 196 9V-162Q223 -182 271 -191L267
-228H29ZM196 262V59Q232 38 287 38Q352 38 389 97T426 263Q426 367 400 416T319 466Q196 466 196 262Z" />
<glyph unicode="q" glyph-name="q" horiz-adv-x="551" d="M293 -228L297 -189Q340 -182 368 -162V64Q325 -8 245 -8Q139 -8 90 61T41 250T95 441T265 513Q321 513 386 462L402 506H460V-162Q487 -182 535 -191L531 -228H293ZM368 258V413Q312 467 262 467Q228
467 204 453T167 419T148 367T140 311T139 250Q139 212 140 185T148 129T166 81T197 50T245 38Q282 38 307 55T345 106T363 175T368 258Z" />
<glyph unicode="r" glyph-name="r" horiz-adv-x="440" d="M37 0L41 39Q84 46 112 66V374Q112 414 96 428T37 445L40 477Q62 481 172 513L191 503L202 428Q259 513 331 513Q370 513 398 490T427 425Q427 398 412 378T370 358Q351 358 335 367T315 391Q326 402 326
421Q326 454 295 454T234 408T204 311V66Q234 46 289 37L285 0H37Z" />
<glyph unicode="s" glyph-name="s" horiz-adv-x="454" d="M57 35V168L115 175Q122 93 144 52Q181 41 224 41T294 65T321 125Q321 161 294 183T229 216T151 242T85 290T58 378Q58 439 106 475T236 512Q304 512 352 482T400 407Q400 351 350 351Q312 351 293 380Q310
394 310 419Q310 441 287 455T229 469Q188 469 164 450T139 397Q139 360 166 337T233 302T311 275T378 228T406 147Q406 74 356 34T215 -6Q178 -6 130 6T57 35Z" />
<glyph unicode="t" glyph-name="t" horiz-adv-x="357" d="M108 125V450H20V480Q126 516 158 611H201V506H323V450H200V117Q200 77 209 60T250 43T317 64L338 32Q288 -8 223 -8Q156 -8 132 22T108 125Z" />
<glyph unicode="u" glyph-name="u" horiz-adv-x="588" d="M89 166V376Q89 416 73 430T14 447L17 479Q58 486 160 516L181 505V154Q181 41 274 41Q302 41 333 61T388 126V376Q388 416 372 430T313 447L316 479Q357 486 459 516L480 505V66Q505 47 555 37L551 0H408L397
68Q339 -8 262 -8Q89 -8 89 166Z" />
<glyph unicode="v" glyph-name="v" horiz-adv-x="543" d="M233 0L76 429Q64 462 -1 474L2 506H242L239 474Q194 468 172 450L286 104L400 450Q377 467 336 474L339 506H544L541 474Q475 462 468 442L305 0H233Z" />
<glyph unicode="w" glyph-name="w" horiz-adv-x="775" d="M219 0L75 429Q64 462 -2 474L1 506H241L238 474Q193 468 171 450L268 122L374 488H416L531 122L627 450Q604 467 563 474L566 506H770L767 474Q702 462 695 442L546 0H480L382 306L285 0H219Z" />
<glyph unicode="x" glyph-name="x" horiz-adv-x="536" d="M5 0L9 39Q32 41 42 42T65 49T86 64L225 247L81 443Q63 468 19 474L22 506H253L248 474Q209 471 183 452L283 315L381 444Q347 470 309 474L312 506H529L524 474Q466 467 447 442L316 270L466 66Q481 45
530 40L525 0H292L296 39Q346 44 364 57L258 202L150 60Q170 44 222 39L219 0H5Z" />
<glyph unicode="y" glyph-name="y" horiz-adv-x="550" d="M227 -86L253 -5L76 427Q62 462 -1 473L2 506H237L234 474Q192 469 170 450L295 122L402 450Q379 467 338 474L341 506H551L548 474Q478 464 470 442L283 -99Q256 -177 222 -210T137 -243Q95 -243 67 -220T38
-160Q38 -131 53 -115T91 -99Q111 -99 129 -111Q116 -129 116 -148Q116 -164 126 -174T152 -185Q175 -185 192 -162T227 -86Z" />
<glyph unicode="z" glyph-name="z" horiz-adv-x="468" d="M47 -4L38 41L317 457Q257 461 236 461Q174 461 139 456Q118 429 110 368Q95 363 79 363Q64 363 53 367L43 486L70 508Q80 508 150 507T257 506Q356 506 419 509L429 472L146 50Q162 49 249 49Q305 49
330 50Q359 90 373 149Q387 152 401 152Q409 152 425 150L418 22L397 -3Q355 0 244 0L47 -4Z" />
<glyph unicode="{" glyph-name="braceleft" horiz-adv-x="287" d="M262 -86V-121Q191 -121 138 -74T84 42Q84 64 97 132T111 223Q111 250 99 268T73 292L60 297V332Q66 333 74 337T97 360T111 406Q111 429 98 496T84 586Q84 654 137 701T262 749V715Q212 711 186
677T160 593Q160 565 169 516T178 438Q178 354 131 315Q178 275 178 191Q178 162 169 113T160 35Q160 -13 186 -48T262 -86Z" />
<glyph unicode="|" glyph-name="bar" horiz-adv-x="269" d="M100 -121V749H169V-121H100Z" />
<glyph unicode="}" glyph-name="braceright" horiz-adv-x="287" d="M25 -121V-86Q75 -83 101 -48T127 35Q127 64 118 113T109 191Q109 275 156 315Q109 354 109 438Q109 467 118 516T127 593Q127 642 101 676T25 715V749Q96 749 149 702T203 586Q203 564 190 497T176
406Q176 379 189 361T214 337L227 332V297Q221 296 213 292T190 269T176 223Q176 200 189 132T203 42Q203 -26 150 -73T25 -121Z" />
<glyph unicode="~" glyph-name="asciitilde" horiz-adv-x="566" d="M62 245Q48 252 40 267Q106 353 183 353Q214 353 294 327T402 301Q451 301 503 344Q516 336 526 323Q471 234 395 234Q358 234 276 261T162 288Q114 288 62 245Z" />
<glyph unicode="&#xa0;" glyph-name="nbspace" horiz-adv-x="450" />
<glyph unicode="&#xa1;" glyph-name="exclamdown" horiz-adv-x="215" d="M86 243L142 253Q142 226 141 152T139 34Q139 -138 159 -225Q136 -243 95 -243Q35 -243 35 -162Q35 -125 58 25T86 243ZM137 352T113 352T75 368T61 407T75 445T113 461Q137 461 151 446T166
407T152 368Z" />
<glyph unicode="&#xa2;" glyph-name="cent" horiz-adv-x="469" d="M232 -32V83Q41 100 41 318Q41 421 90 482T232 555V665L238 672Q255 672 275 667V557Q347 556 392 525T438 445Q438 420 421 402T381 384Q361 384 345 394T325 421Q338 440 338 458Q338 482 320
496T275 513V127Q357 130 391 217L435 203Q418 150 375 117T275 82V-30L269 -37Q252 -37 232 -32ZM232 130V509Q179 497 160 449T141 318Q141 278 144 250T157 195T184 152T232 130Z" />
<glyph unicode="&#xa3;" glyph-name="sterling" horiz-adv-x="574" d="M66 334L73 341H153Q131 416 131 453Q131 548 188 600T349 652Q417 652 469 618T522 520Q522 487 505 466T463 444Q442 444 426 454T404 480Q423 505 423 531Q423 559 401 577T340 595Q229
595 229 461Q229 421 253 341H406Q411 321 411 305L404 298H266Q280 247 280 214Q280 162 261 111Q346 82 419 82Q481 82 481 148Q508 147 524 128T541 81Q541 36 509 15T424 -7Q406 -7 388 -3T357 4T324 17T297 31T267 49T240 66Q193 -8 121 -8Q83 -8 57 11T30
64Q30 101 57 123T125 146Q155 146 194 134Q195 142 195 160Q195 202 165 298H71Q66 318 66 334ZM188 92Q153 106 125 106Q79 106 79 67Q79 34 120 34Q172 34 188 92Z" />
<glyph unicode="&#xa4;" glyph-name="currency" horiz-adv-x="567" d="M70 116L132 185Q89 237 89 319Q89 403 136 456L70 526L112 567L182 492Q226 515 284 515T385 492L455 567L497 526L431 456Q478 404 478 319Q478 238 434 185L497 116L455 75L389 148Q346
123 284 123Q224 123 177 148L112 75L70 116ZM284 167Q346 167 377 207T408 319T377 430T284 471Q220 471 190 430T159 319Q159 248 190 208T284 167Z" />
<glyph unicode="&#xa5;" glyph-name="yen" horiz-adv-x="628" d="M170 0L175 38Q239 45 272 64V215H91Q86 235 86 251L93 258H268L231 326H91Q86 346 86 362L93 369H207L103 559Q82 588 15 595L20 633H291L286 595Q230 588 201 571L330 331L462 571Q430 588 369
595L374 633H613L607 595Q545 593 525 563L421 369H534Q539 349 539 333L532 326H398L362 258H534Q539 238 539 222L532 215H362V64Q396 46 465 38L460 0H170Z" />
<glyph unicode="&#xa6;" glyph-name="brokenbar" horiz-adv-x="269" d="M100 396V749H169V396H100ZM100 -121V252H169V-121H100Z" />
<glyph unicode="&#xa7;" glyph-name="section" horiz-adv-x="505" d="M125 553Q102 527 102 475Q102 432 128 388T192 303T266 221T330 126T357 19Q380 45 380 97Q380 148 355 196T293 282T219 360T154 449T125 553ZM168 70Q144 46 144 10Q144 -22 165 -38T223
-55Q299 -55 299 24Q299 51 292 76T268 126T238 169T198 217T158 264Q112 322 94 346T60 409T44 489Q44 578 102 630T255 683Q335 683 380 648T425 553Q425 519 410 500T368 480Q330 480 309 511Q333 535 333 571Q333 603 312 619T255 636Q180 636 180 557Q180
521 194 488T226 434T277 376T330 315Q333 311 354 285T380 252T401 221T421 182T431 142T437 92Q437 4 378 -49T223 -102Q142 -102 95 -67T48 26Q48 58 64 79T109 101Q147 101 168 70Z" />
<glyph unicode="&#xa8;" glyph-name="dieresis" horiz-adv-x="370" d="M152 596T101 596T50 653Q50 709 101 709T152 653Q152 596 101 596ZM280 596Q230 596 230 653Q230 709 280 709Q332 709 332 653Q332 596 280 596Z" />
<glyph unicode="&#xa9;" glyph-name="copyright" horiz-adv-x="670" d="M237 93T335 93T503 164T574 337T504 509T335 581T167 510T96 337T166 165ZM48 219T48 337T132 538T335 621T538 538T622 337T539 136T335 53T132 136ZM423 277L453 260Q421 187 339 187Q277
187 240 225T203 336T241 448T343 487Q393 487 424 463T455 406Q455 388 444 378T419 368Q391 368 385 391Q391 403 391 414Q391 430 378 439T341 449Q308 449 287 422T266 336Q266 281 287 253T341 225Q397 225 423 277Z" />
<glyph unicode="&#xaa;" glyph-name="ordfeminine" horiz-adv-x="360" d="M230 352L224 378Q188 347 130 347Q85 347 60 369T35 431Q35 478 69 505T169 537L220 541V593Q220 630 208 647T166 664Q143 664 129 656T115 634Q115 622 127 607Q126 591 114 582T87
573Q69 573 56 584T43 614Q43 652 77 674T171 697Q228 697 260 670T292 593V398Q308 387 342 380L339 352H230ZM220 410V507L172 503Q143 501 126 483T109 437Q109 381 153 381Q186 381 220 410ZM35 256V293H340V256H35Z" />
<glyph unicode="&#xab;" glyph-name="guillemotleft" horiz-adv-x="396" d="M166 85L25 253L168 414L200 392L117 253L200 107L166 85ZM322 85L181 253L324 414L356 392L273 253L356 107L322 85Z" />
<glyph unicode="&#xac;" glyph-name="logicalnot" horiz-adv-x="546" d="M65 334V391H486V334H65ZM65 153V334H130V153H65Z" />
<glyph unicode="&#xad;" glyph-name="uni00AD" horiz-adv-x="359" d="M30 241V299H329V241H30Z" />
<glyph unicode="&#xae;" glyph-name="registered" horiz-adv-x="670" d="M237 93T335 93T503 164T574 337T504 509T335 581T167 510T96 337T166 165ZM48 219T48 337T132 538T335 621T538 538T622 337T539 136T335 53T132 136ZM206 194L210 218L249 228V454L206
465L210 489H337Q447 489 447 409Q447 353 386 336Q403 326 412 305L448 228L483 219L480 194H398L360 292Q351 315 341 320T304 326V228L346 218L343 194H206ZM304 358H318Q391 358 391 409Q391 459 337 459H304V358Z" />
<glyph unicode="&#xaf;" glyph-name="overscore" horiz-adv-x="374" d="M37 615V672H337V615H37Z" />
<glyph unicode="0;" glyph-name="degree" horiz-adv-x="408" d="M40 456T40 523T87 637T204 684T321 637T368 523T321 409T204 362T87 409ZM161 400T204 400T270 434T294 523Q294 575 270 610T204 646T139 611T114 523Q114 469 137 435Z" />
<glyph unicode="1;" glyph-name="plusminus" horiz-adv-x="545" d="M82 290V347H237V498H302V347H463V290H302V139H237V290H82ZM82 42V99H463V42H82Z" />
<glyph unicode="2;" glyph-name="twosuperior" horiz-adv-x="371" d="M42 356V399Q155 492 198 547T241 653Q241 721 177 721Q148 721 132 706T115 668Q115 650 130 629Q113 612 89 612Q70 612 57 625T43 664Q43 703 82 733T177 763Q241 763 277 732T314 647Q314
597 272 542T131 412H331V356H42Z" />
<glyph unicode="3;" glyph-name="threesuperior" horiz-adv-x="371" d="M133 551V584Q184 586 212 606T240 664Q240 721 181 721Q153 721 138 707T122 673Q122 661 130 647Q110 633 90 633Q73 633 63 645T53 679Q53 714 89 738T182 763Q240 763 275 736T310
664Q310 599 232 569Q320 545 320 468Q320 418 280 385T176 352T74 379T36 449Q36 468 49 478T80 489Q101 489 118 475Q112 458 112 446Q112 422 130 408T179 394Q248 394 248 468Q248 505 220 527T137 551H133Z" />
<glyph unicode="4;" glyph-name="acute" horiz-adv-x="261" d="M58 565L34 591L124 716Q135 734 158 734Q174 734 185 723T197 697Q197 677 170 655L58 565Z" />
<glyph unicode="5;" glyph-name="mu" horiz-adv-x="590" d="M91 -221V376Q91 416 75 430T16 447L19 479Q60 486 162 516L183 505V154Q183 41 276 41Q304 41 335 61T390 126V376Q390 416 374 430T315 447L318 479Q359 486 461 516L482 505V66Q507 47 557 37L553
0H410L399 68Q341 -8 264 -8Q220 -8 183 5V-221H91Z" />
<glyph unicode="6;" glyph-name="paragraph" horiz-adv-x="530" d="M265 -67V307Q166 316 116 359T65 490Q65 581 119 628T294 676H503L497 636Q435 629 400 608V31Q400 -16 388 -51T357 -106T313 -137T267 -152T223 -156Q104 -156 104 -73Q104 -48 118 -31T155
-14Q185 -14 197 -35Q178 -53 178 -82Q178 -122 222 -122Q243 -122 254 -107T265 -67ZM345 -19V628L306 631V-53Q306 -94 289 -111Q345 -95 345 -19ZM265 360V629Q162 615 162 492Q162 383 265 360Z" />
<glyph unicode="7;" glyph-name="middot" horiz-adv-x="198" d="M125 289T101 289T63 305T49 344T63 382T101 398Q125 398 139 383T154 344T140 305Z" />
<glyph unicode="8;" glyph-name="cedilla" horiz-adv-x="225" d="M88 -82L68 -60L111 10L139 4L120 -50Q160 -57 181 -76T202 -135Q202 -171 173 -195T99 -220Q51 -220 26 -199T1 -149Q1 -132 10 -120T37 -107Q47 -107 56 -111Q52 -127 52 -133Q52 -156 66
-170T100 -184Q147 -184 147 -130Q147 -90 88 -82Z" />
<glyph unicode="9;" glyph-name="onesuperior" horiz-adv-x="372" d="M86 356L89 386L164 404V695H81V725Q152 736 205 762L232 751V404L300 386L297 356H86Z" />
<glyph unicode="a;" glyph-name="ordmasculine" horiz-adv-x="360" d="M146 384T188 384T249 416T268 522T249 627T188 659T128 627T109 522T127 417ZM188 347Q35 347 35 522T188 697Q264 697 303 652T342 522Q342 347 188 347ZM35 256V293H343V256H35Z" />
<glyph unicode="b;" glyph-name="guillemotright" horiz-adv-x="396" d="M40 107L122 253L40 392L72 414L215 253L74 85L40 107ZM196 107L278 253L196 392L228 414L371 253L230 85L196 107Z" />
<glyph unicode="c;" glyph-name="onequarter" horiz-adv-x="797" d="M55 273L58 303L133 321V612H50V642Q121 653 174 679L201 668V321L269 303L266 273H55ZM192 0L497 676L552 651L246 -27L192 0ZM434 97L428 124L569 398Q613 398 635 380L495 140H624V248Q662
248 670 275H694V139L753 129V97H692V-1H624V97H434Z" />
<glyph unicode="d;" glyph-name="onehalf" horiz-adv-x="797" d="M55 273L58 303L133 321V612H50V642Q121 653 174 679L201 668V321L269 303L266 273H55ZM192 0L497 676L552 651L246 -27L192 0ZM464 1V44Q577 137 620 192T663 298Q663 366 599 366Q570 366
554 351T537 313Q537 295 552 274Q535 257 511 257Q492 257 479 269T465 309Q465 348 504 378T599 408Q663 408 699 377T736 292Q736 242 694 187T553 57H753V1H464Z" />
<glyph unicode="e;" glyph-name="threequarters" horiz-adv-x="797" d="M141 468V501Q192 503 220 523T248 581Q248 638 189 638Q161 638 146 624T130 590Q130 578 138 564Q118 550 98 550Q81 550 71 562T61 596Q61 631 97 655T190 680Q248 680 283 653T318
581Q318 516 240 486Q328 462 328 385Q328 335 288 302T184 269T82 296T44 366Q44 385 57 395T88 406Q109 406 126 392Q120 376 120 363Q120 339 138 325T187 311Q256 311 256 385Q256 422 228 444T145 468H141ZM224 0L529 676L584 651L278 -27L224 0ZM446 98L440
125L581 399Q625 399 647 381L507 141H636V249Q674 249 682 276H706V140L765 130V98H704V0H636V98H446Z" />
<glyph unicode="f;" glyph-name="questiondown" horiz-adv-x="392" d="M262 -95Q283 -63 314 -63Q367 -63 367 -125Q367 -179 318 -207T203 -235Q122 -235 74 -202T25 -98Q25 -56 43 -21T86 40T137 88T180 136T198 189Q198 210 192 236Q214 254 239 254T278
235T292 187Q292 147 274 115T228 59T174 13T129 -41T110 -111Q110 -146 135 -167T198 -189Q231 -189 252 -176T274 -134Q274 -116 262 -95ZM264 352T240 352T202 368T188 407T202 445T240 461Q264 461 278 446T293 407T279 368Z" />
<glyph unicode="0;" glyph-name="Agrave" horiz-adv-x="709" d="M0 0L6 40Q59 47 88 68L310 677H392L632 67Q657 48 709 40L704 0H419L425 40Q489 47 520 67L459 227H216L159 66Q192 48 259 40L254 0H0ZM236 283H438L333 557L236 283ZM385 705L273 795Q246
817 246 837Q246 851 257 862T285 874Q308 874 319 856L409 731L385 705Z" />
<glyph unicode="1;" glyph-name="Aacute" horiz-adv-x="709" d="M0 0L6 40Q59 47 88 68L310 677H392L632 67Q657 48 709 40L704 0H419L425 40Q489 47 520 67L459 227H216L159 66Q192 48 259 40L254 0H0ZM236 283H438L333 557L236 283ZM311 705L287 731L377
856Q388 874 411 874Q427 874 438 863T450 837Q450 817 423 795L311 705Z" />
<glyph unicode="2;" glyph-name="Acircumflex" horiz-adv-x="709" d="M0 0L6 40Q59 47 88 68L310 677H392L632 67Q657 48 709 40L704 0H419L425 40Q489 47 520 67L459 227H216L159 66Q192 48 259 40L254 0H0ZM236 283H438L333 557L236 283ZM240 715L216 741L316
856Q330 873 349 873Q369 873 383 856L483 741L459 715L349 798L240 715Z" />
<glyph unicode="3;" glyph-name="Atilde" horiz-adv-x="709" d="M0 0L6 40Q59 47 88 68L310 677H392L632 67Q657 48 709 40L704 0H419L425 40Q489 47 520 67L459 227H216L159 66Q192 48 259 40L254 0H0ZM236 283H438L333 557L236 283ZM217 738Q200 742 182
759Q195 790 223 819T290 848Q314 848 353 827T413 805Q447 805 484 848Q502 841 519 827Q506 795 478 767T414 738Q386 738 347 759T287 781Q254 781 217 738Z" />
<glyph unicode="4;" glyph-name="Adieresis" horiz-adv-x="709" d="M0 0L6 40Q59 47 88 68L310 677H392L632 67Q657 48 709 40L704 0H419L425 40Q489 47 520 67L459 227H216L159 66Q192 48 259 40L254 0H0ZM236 283H438L333 557L236 283ZM310 736T259 736T208
793Q208 849 259 849T310 793Q310 736 259 736ZM438 736Q388 736 388 793Q388 849 438 849Q490 849 490 793Q490 736 438 736Z" />
<glyph unicode="5;" glyph-name="Aring" horiz-adv-x="709" d="M0 0L6 40Q59 47 88 68L310 677H392L632 67Q657 48 709 40L704 0H419L425 40Q489 47 520 67L459 227H216L159 66Q192 48 259 40L254 0H0ZM236 283H438L333 557L236 283ZM257 751T257 790T282
854T348 879Q390 879 416 854T442 790T416 726T348 701Q307 701 282 726ZM328 743T348 743T382 757T397 790Q397 810 383 824T348 838T315 824T302 790T315 757Z" />
<glyph unicode="6;" glyph-name="AE" horiz-adv-x="889" d="M0 0L6 40Q35 45 54 60T91 106L410 676H825L834 514Q819 509 804 509Q793 509 788 510Q774 575 738 619H533V374H663Q686 374 702 394T723 447H757V237H723Q714 318 663 318H533V61H753Q789 109
804 182Q818 184 825 184Q830 184 848 182L838 0H335L341 40Q412 48 438 68V318H285L146 61Q183 45 237 40L232 0H0ZM316 374H438V598L316 374Z" />
<glyph unicode="7;" glyph-name="Ccedilla" horiz-adv-x="605" d="M280 -82L260 -60L294 -3Q166 11 107 93T48 336Q48 682 354 682Q407 682 454 669T535 623T570 542Q570 506 552 482T508 458Q486 458 469 469T446 500Q466 529 466 554Q466 590 436 608T355
627Q248 627 201 559T154 336T200 115T354 48Q371 48 389 51T437 66T492 104T533 173L583 155Q567 112 540 80T487 31T431 6T384 -5T354 -7Q336 -7 327 -6L312 -50Q352 -57 373 -76T394 -135Q394 -171 365 -195T291 -220Q243 -220 218 -199T193 -149Q193 -132 202
-120T229 -107Q239 -107 248 -111Q244 -127 244 -133Q244 -156 258 -170T292 -184Q339 -184 339 -130Q339 -90 280 -82Z" />
<glyph unicode="8;" glyph-name="Egrave" horiz-adv-x="633" d="M43 0L49 40Q120 48 146 68V608Q110 628 43 636L48 676H558L567 514Q552 509 537 509Q526 509 521 510Q507 575 471 619H241V370L396 381Q439 384 456 452H490V242H456Q441 317 395 320L241
331V61H497Q533 109 548 182Q562 184 569 184Q574 184 592 182L582 0H43ZM373 705L261 795Q234 817 234 837Q234 851 245 862T273 874Q296 874 307 856L397 731L373 705Z" />
<glyph unicode="9;" glyph-name="Eacute" horiz-adv-x="633" d="M299 705L275 731L365 856Q376 874 399 874Q415 874 426 863T438 837Q438 817 411 795L299 705ZM43 0L49 40Q120 48 146 68V608Q110 628 43 636L48 676H558L567 514Q552 509 537 509Q526 509
521 510Q507 575 471 619H241V370L396 381Q439 384 456 452H490V242H456Q441 317 395 320L241 331V61H497Q533 109 548 182Q562 184 569 184Q574 184 592 182L582 0H43Z" />
<glyph unicode="a;" glyph-name="Ecircumflex" horiz-adv-x="633" d="M228 715L204 741L304 856Q318 873 337 873Q357 873 371 856L471 741L447 715L337 798L228 715ZM43 0L49 40Q120 48 146 68V608Q110 628 43 636L48 676H558L567 514Q552 509 537 509Q526
509 521 510Q507 575 471 619H241V370L396 381Q439 384 456 452H490V242H456Q441 317 395 320L241 331V61H497Q533 109 548 182Q562 184 569 184Q574 184 592 182L582 0H43Z" />
<glyph unicode="b;" glyph-name="Edieresis" horiz-adv-x="633" d="M298 736T247 736T196 793Q196 849 247 849T298 793Q298 736 247 736ZM426 736Q376 736 376 793Q376 849 426 849Q478 849 478 793Q478 736 426 736ZM43 0L49 40Q120 48 146 68V608Q110 628
43 636L48 676H558L567 514Q552 509 537 509Q526 509 521 510Q507 575 471 619H241V370L396 381Q439 384 456 452H490V242H456Q441 317 395 320L241 331V61H497Q533 109 548 182Q562 184 569 184Q574 184 592 182L582 0H43Z" />
<glyph unicode="c;" glyph-name="Igrave" horiz-adv-x="401" d="M50 0L56 40Q118 47 153 68V608Q117 628 50 636L55 676H351L345 636Q283 629 248 608V68Q284 48 351 40L346 0H50ZM231 705L119 795Q92 817 92 837Q92 851 103 862T131 874Q154 874 165 856L255
731L231 705Z" />
<glyph unicode="d;" glyph-name="Iacute" horiz-adv-x="401" d="M50 0L56 40Q118 47 153 68V608Q117 628 50 636L55 676H351L345 636Q283 629 248 608V68Q284 48 351 40L346 0H50ZM157 705L133 731L223 856Q234 874 257 874Q273 874 284 863T296 837Q296 817
269 795L157 705Z" />
<glyph unicode="e;" glyph-name="Icircumflex" horiz-adv-x="401" d="M86 715L62 741L162 856Q176 873 195 873Q215 873 229 856L329 741L305 715L195 798L86 715ZM50 0L56 40Q118 47 153 68V608Q117 628 50 636L55 676H351L345 636Q283 629 248 608V68Q284
48 351 40L346 0H50Z" />
<glyph unicode="f;" glyph-name="Idieresis" horiz-adv-x="401" d="M156 736T105 736T54 793Q54 849 105 849T156 793Q156 736 105 736ZM284 736Q234 736 234 793Q234 849 284 849Q336 849 336 793Q336 736 284 736ZM50 0L56 40Q118 47 153 68V608Q117 628
50 636L55 676H351L345 636Q283 629 248 608V68Q284 48 351 40L346 0H50Z" />
<glyph unicode="&#xd0;" glyph-name="Eth" horiz-adv-x="713" d="M46 0L52 40Q114 47 149 67V319H43V370H149V608Q113 628 46 636L51 676H295Q481 676 573 595T666 338Q666 160 573 80T289 0H46ZM244 53H307Q434 53 496 117T559 338Q559 493 498 558T310 623Q280
623 263 623T244 622V370H373L380 363Q375 341 362 319H244V53Z" />
<glyph unicode="&#xd1;" glyph-name="Ntilde" horiz-adv-x="773" d="M38 0L44 40Q106 47 141 68V608Q105 628 38 636L43 676H221L580 177V608Q544 628 477 636L482 676H752L746 636Q684 629 649 608V0H584L210 520V68Q246 48 313 40L308 0H38ZM258 738Q241 742
223 759Q236 790 264 819T331 848Q355 848 394 827T454 805Q488 805 525 848Q542 841 560 827Q547 795 519 767T455 738Q427 738 388 759T328 781Q295 781 258 738Z" />
<glyph unicode="&#xd2;" glyph-name="Ograve" horiz-adv-x="688" d="M239 48T344 48T492 116T535 338T492 559T344 627T197 560T154 338T196 116ZM640 -6T344 -6T48 338Q48 681 344 681T640 338Q640 -6 344 -6ZM380 705L268 795Q241 817 241 837Q241 851 252 862T280
874Q303 874 314 856L404 731L380 705Z" />
<glyph unicode="&#xd3;" glyph-name="Oacute" horiz-adv-x="688" d="M239 48T344 48T492 116T535 338T492 559T344 627T197 560T154 338T196 116ZM640 -6T344 -6T48 338Q48 681 344 681T640 338Q640 -6 344 -6ZM306 705L282 731L372 856Q383 874 406 874Q422 874
433 863T445 837Q445 817 418 795L306 705Z" />
<glyph unicode="&#xd4;" glyph-name="Ocircumflex" horiz-adv-x="688" d="M239 48T344 48T492 116T535 338T492 559T344 627T197 560T154 338T196 116ZM640 -6T344 -6T48 338Q48 681 344 681T640 338Q640 -6 344 -6ZM235 715L211 741L311 856Q325 873 344 873Q364
873 378 856L478 741L454 715L344 798L235 715Z" />
<glyph unicode="&#xd5;" glyph-name="Otilde" horiz-adv-x="688" d="M239 48T344 48T492 116T535 338T492 559T344 627T197 560T154 338T196 116ZM640 -6T344 -6T48 338Q48 681 344 681T640 338Q640 -6 344 -6ZM212 738Q195 742 177 759Q190 790 218 819T285 848Q309
848 348 827T408 805Q442 805 479 848Q497 841 514 827Q501 795 473 767T409 738Q381 738 342 759T282 781Q249 781 212 738Z" />
<glyph unicode="&#xd6;" glyph-name="Odieresis" horiz-adv-x="688" d="M239 48T344 48T492 116T535 338T492 559T344 627T197 560T154 338T196 116ZM640 -6T344 -6T48 338Q48 681 344 681T640 338Q640 -6 344 -6ZM305 736T254 736T203 793Q203 849 254 849T305
793Q305 736 254 736ZM433 736Q383 736 383 793Q383 849 433 849Q485 849 485 793Q485 736 433 736Z" />
<glyph unicode="&#xd7;" glyph-name="multiply" horiz-adv-x="545" d="M119 90L75 136L227 286L78 434L122 480L272 331L423 480L467 434L318 286L470 136L426 90L272 241L119 90Z" />
<glyph unicode="&#xd8;" glyph-name="Oslash" horiz-adv-x="688" d="M72 2L125 75Q48 159 48 338Q48 681 344 681Q460 681 530 630L578 696L586 697Q597 690 614 671L562 600Q640 515 640 338Q640 -6 344 -6Q227 -6 158 45L108 -23L100 -24Q86 -14 72 2ZM509 527L203
107Q247 48 344 48Q449 48 492 116T535 338Q535 461 509 527ZM179 149L485 569Q440 627 344 627Q239 627 197 560T154 338Q154 213 179 149Z" />
<glyph unicode="&#xd9;" glyph-name="Ugrave" horiz-adv-x="772" d="M137 223V608Q102 629 34 636L39 676H337L331 636Q269 628 234 608V223Q234 130 274 89T403 48Q488 48 535 95T582 229V608Q547 629 479 636L484 676H754L748 636Q686 628 651 608V229Q651 115
587 54T403 -8Q263 -8 200 47T137 223ZM445 705L333 795Q306 817 306 837Q306 851 317 862T345 874Q368 874 379 856L469 731L445 705Z" />
<glyph unicode="&#xda;" glyph-name="Uacute" horiz-adv-x="772" d="M137 223V608Q102 629 34 636L39 676H337L331 636Q269 628 234 608V223Q234 130 274 89T403 48Q488 48 535 95T582 229V608Q547 629 479 636L484 676H754L748 636Q686 628 651 608V229Q651 115
587 54T403 -8Q263 -8 200 47T137 223ZM371 705L347 731L437 856Q448 874 471 874Q487 874 498 863T510 837Q510 817 483 795L371 705Z" />
<glyph unicode="&#xdb;" glyph-name="Ucircumflex" horiz-adv-x="772" d="M137 223V608Q102 629 34 636L39 676H337L331 636Q269 628 234 608V223Q234 130 274 89T403 48Q488 48 535 95T582 229V608Q547 629 479 636L484 676H754L748 636Q686 628 651 608V229Q651
115 587 54T403 -8Q263 -8 200 47T137 223ZM300 715L276 741L376 856Q390 873 409 873Q429 873 443 856L543 741L519 715L409 798L300 715Z" />
<glyph unicode="&#xdc;" glyph-name="Udieresis" horiz-adv-x="772" d="M137 223V608Q102 629 34 636L39 676H337L331 636Q269 628 234 608V223Q234 130 274 89T403 48Q488 48 535 95T582 229V608Q547 629 479 636L484 676H754L748 636Q686 628 651 608V229Q651
115 587 54T403 -8Q263 -8 200 47T137 223ZM370 736T319 736T268 793Q268 849 319 849T370 793Q370 736 319 736ZM498 736Q448 736 448 793Q448 849 498 849Q550 849 550 793Q550 736 498 736Z" />
<glyph unicode="&#xdd;" glyph-name="Yacute" horiz-adv-x="646" d="M171 0L177 40Q242 47 279 68V264L89 600Q67 629 -2 636L3 676H294L288 636Q224 628 194 612L340 347L488 611Q454 628 386 636L391 676H648L642 636Q578 634 556 604L374 271V68Q411 48 482
40L477 0H171ZM305 705L281 731L371 856Q382 874 405 874Q421 874 432 863T444 837Q444 817 417 795L305 705Z" />
<glyph unicode="&#xde;" glyph-name="Thorn" horiz-adv-x="610" d="M44 0L50 40Q112 47 147 68V608Q111 628 44 636L49 676H345L339 636Q277 629 242 608V532H326Q574 532 574 340T302 148H242V68Q278 48 345 40L340 0H44ZM242 197H312Q390 197 434 232T478 340Q478
483 321 483Q303 483 286 482T256 479T242 478V197Z" />
<glyph unicode="&#xdf;" glyph-name="germandbls" horiz-adv-x="608" d="M35 0L39 39Q83 45 110 66V555Q110 644 161 691T308 739Q404 739 456 697T509 577Q509 526 468 478T360 400Q459 378 517 321T575 185Q575 103 523 49T392 -6Q247 -6 247 82Q247 110 264
127T306 144Q328 144 347 133Q338 112 338 94Q338 70 353 56T399 41Q438 41 459 78T480 184Q480 263 433 306T280 364V421Q331 430 372 478T414 577Q414 633 387 662T309 692Q250 692 226 651T202 506V0H35Z" />
<glyph unicode="&#xe0;" glyph-name="agrave" horiz-adv-x="515" d="M347 0L336 48Q277 -8 189 -8Q125 -8 90 24T54 116Q54 186 103 226T248 273L333 279V367Q333 421 312 445T243 470Q158 470 158 421Q158 394 191 381Q191 330 129 330Q101 330 84 347T67 392Q67
448 114 480T243 513Q329 513 377 475T425 367V66Q450 47 500 37L496 0H347ZM333 99V235L252 228Q204 224 177 196T149 125Q149 37 217 37Q271 37 333 99ZM288 565L176 655Q149 677 149 697Q149 711 160 722T188 734Q211 734 222 716L312 591L288 565Z" />
<glyph unicode="&#xe1;" glyph-name="aacute" horiz-adv-x="515" d="M347 0L336 48Q277 -8 189 -8Q125 -8 90 24T54 116Q54 186 103 226T248 273L333 279V367Q333 421 312 445T243 470Q158 470 158 421Q158 394 191 381Q191 330 129 330Q101 330 84 347T67 392Q67
448 114 480T243 513Q329 513 377 475T425 367V66Q450 47 500 37L496 0H347ZM333 99V235L252 228Q204 224 177 196T149 125Q149 37 217 37Q271 37 333 99ZM214 565L190 591L280 716Q291 734 314 734Q330 734 341 723T353 697Q353 677 326 655L214 565Z" />
<glyph unicode="&#xe2;" glyph-name="acircumflex" horiz-adv-x="515" d="M347 0L336 48Q277 -8 189 -8Q125 -8 90 24T54 116Q54 186 103 226T248 273L333 279V367Q333 421 312 445T243 470Q158 470 158 421Q158 394 191 381Q191 330 129 330Q101 330 84 347T67
392Q67 448 114 480T243 513Q329 513 377 475T425 367V66Q450 47 500 37L496 0H347ZM333 99V235L252 228Q204 224 177 196T149 125Q149 37 217 37Q271 37 333 99ZM143 575L119 601L219 716Q233 733 252 733Q272 733 286 716L386 601L362 575L252 658L143 575Z"
/>
<glyph unicode="&#xe3;" glyph-name="atilde" horiz-adv-x="515" d="M347 0L336 48Q277 -8 189 -8Q125 -8 90 24T54 116Q54 186 103 226T248 273L333 279V367Q333 421 312 445T243 470Q158 470 158 421Q158 394 191 381Q191 330 129 330Q101 330 84 347T67 392Q67
448 114 480T243 513Q329 513 377 475T425 367V66Q450 47 500 37L496 0H347ZM333 99V235L252 228Q204 224 177 196T149 125Q149 37 217 37Q271 37 333 99ZM120 598Q103 602 85 619Q98 650 126 679T193 708Q217 708 256 687T316 665Q350 665 387 708Q405 701 422
687Q409 655 381 627T317 598Q289 598 250 619T190 641Q157 641 120 598Z" />
<glyph unicode="&#xe4;" glyph-name="adieresis" horiz-adv-x="515" d="M347 0L336 48Q277 -8 189 -8Q125 -8 90 24T54 116Q54 186 103 226T248 273L333 279V367Q333 421 312 445T243 470Q158 470 158 421Q158 394 191 381Q191 330 129 330Q101 330 84 347T67
392Q67 448 114 480T243 513Q329 513 377 475T425 367V66Q450 47 500 37L496 0H347ZM333 99V235L252 228Q204 224 177 196T149 125Q149 37 217 37Q271 37 333 99ZM213 596T162 596T111 653Q111 709 162 709T213 653Q213 596 162 596ZM341 596Q291 596 291 653Q291
709 341 709Q393 709 393 653Q393 596 341 596Z" />
<glyph unicode="&#xe5;" glyph-name="aring" horiz-adv-x="515" d="M347 0L336 48Q277 -8 189 -8Q125 -8 90 24T54 116Q54 186 103 226T248 273L333 279V367Q333 421 312 445T243 470Q158 470 158 421Q158 394 191 381Q191 330 129 330Q101 330 84 347T67 392Q67
448 114 480T243 513Q329 513 377 475T425 367V66Q450 47 500 37L496 0H347ZM333 99V235L252 228Q204 224 177 196T149 125Q149 37 217 37Q271 37 333 99ZM160 611T160 650T185 714T251 739Q293 739 319 714T345 650T319 586T251 561Q210 561 185 586ZM231 603T251
603T285 617T300 650Q300 670 286 684T251 698T218 684T205 650T218 617Z" />
<glyph unicode="&#xe6;" glyph-name="ae" horiz-adv-x="776" d="M248 273L333 279V367Q333 421 312 445T243 470Q158 470 158 421Q158 394 191 381Q191 330 129 330Q101 330 84 347T67 392Q67 448 114 480T243 513Q353 513 398 452Q454 513 552 513Q656 513 698
457T743 290L721 261H431V245Q431 207 433 181T442 125T463 79T501 50T560 38Q636 38 686 97L720 63Q659 -8 556 -8Q421 -8 371 82Q330 34 288 13T189 -8Q125 -8 90 24T54 116Q54 186 103 226T248 273ZM333 99V235L252 228Q204 224 177 196T149 125Q149 37 217
37Q277 37 333 99ZM431 301L646 309Q646 393 625 431T548 469Q434 469 431 301Z" />
<glyph unicode="&#xe7;" glyph-name="ccedilla" horiz-adv-x="469" d="M225 -82L205 -60L239 -4Q136 3 89 64T41 251Q41 510 272 510Q346 510 392 479T438 396Q438 370 421 351T381 332Q361 332 345 343T325 371Q339 393 339 410Q339 437 321 454T272 471Q204
471 173 419T141 251Q141 137 170 88T267 38Q356 38 391 133L435 118Q417 63 374 30T273 -5L257 -50Q297 -57 318 -76T339 -135Q339 -171 310 -195T236 -220Q188 -220 163 -199T138 -149Q138 -132 147 -120T174 -107Q184 -107 193 -111Q189 -127 189 -133Q189 -156
203 -170T237 -184Q284 -184 284 -130Q284 -90 225 -82Z" />
<glyph unicode="&#xe8;" glyph-name="egrave" horiz-adv-x="486" d="M141 261V245Q141 207 143 181T152 125T173 79T211 50T270 38Q346 38 396 97L430 63Q369 -8 266 -8Q145 -8 94 59T42 256Q42 376 98 444T262 513Q366 513 408 457T453 290L431 261H141ZM141
301L356 309Q356 393 335 431T258 469Q144 469 141 301ZM298 565L186 655Q159 677 159 697Q159 711 170 722T198 734Q221 734 232 716L322 591L298 565Z" />
<glyph unicode="&#xe9;" glyph-name="eacute" horiz-adv-x="486" d="M141 261V245Q141 207 143 181T152 125T173 79T211 50T270 38Q346 38 396 97L430 63Q369 -8 266 -8Q145 -8 94 59T42 256Q42 376 98 444T262 513Q366 513 408 457T453 290L431 261H141ZM141
301L356 309Q356 393 335 431T258 469Q144 469 141 301ZM224 565L200 591L290 716Q301 734 324 734Q340 734 351 723T363 697Q363 677 336 655L224 565Z" />
<glyph unicode="&#xea;" glyph-name="ecircumflex" horiz-adv-x="486" d="M141 261V245Q141 207 143 181T152 125T173 79T211 50T270 38Q346 38 396 97L430 63Q369 -8 266 -8Q145 -8 94 59T42 256Q42 376 98 444T262 513Q366 513 408 457T453 290L431 261H141ZM141
301L356 309Q356 393 335 431T258 469Q144 469 141 301ZM153 575L129 601L229 716Q243 733 262 733Q282 733 296 716L396 601L372 575L262 658L153 575Z" />
<glyph unicode="&#xeb;" glyph-name="edieresis" horiz-adv-x="486" d="M141 261V245Q141 207 143 181T152 125T173 79T211 50T270 38Q346 38 396 97L430 63Q369 -8 266 -8Q145 -8 94 59T42 256Q42 376 98 444T262 513Q366 513 408 457T453 290L431 261H141ZM141
301L356 309Q356 393 335 431T258 469Q144 469 141 301ZM223 596T172 596T121 653Q121 709 172 709T223 653Q223 596 172 596ZM351 596Q301 596 301 653Q301 709 351 709Q403 709 403 653Q403 596 351 596Z" />
<glyph unicode="&#xec;" glyph-name="igrave" horiz-adv-x="299" d="M37 0L41 39Q84 46 112 66V376Q112 416 96 430T37 447L40 479Q81 486 183 516L204 505V66Q231 46 279 37L275 0H37ZM179 565L67 655Q40 677 40 697Q40 711 51 722T79 734Q102 734 113 716L203
591L179 565Z" />
<glyph unicode="&#xed;" glyph-name="iacute" horiz-adv-x="299" d="M37 0L41 39Q84 46 112 66V376Q112 416 96 430T37 447L40 479Q81 486 183 516L204 505V66Q231 46 279 37L275 0H37ZM105 565L81 591L171 716Q182 734 205 734Q221 734 232 723T244 697Q244 677
217 655L105 565Z" />
<glyph unicode="&#xee;" glyph-name="icircumflex" horiz-adv-x="299" d="M37 0L41 39Q84 46 112 66V376Q112 416 96 430T37 447L40 479Q81 486 183 516L204 505V66Q231 46 279 37L275 0H37ZM34 575L10 601L110 716Q124 733 143 733Q163 733 177 716L277 601L253
575L143 658L34 575Z" />
<glyph unicode="&#xef;" glyph-name="idieresis" horiz-adv-x="299" d="M37 0L41 39Q84 46 112 66V376Q112 416 96 430T37 447L40 479Q81 486 183 516L204 505V66Q231 46 279 37L275 0H37ZM104 596T53 596T2 653Q2 709 53 709T104 653Q104 596 53 596ZM232 596Q182
596 182 653Q182 709 232 709Q284 709 284 653Q284 596 232 596Z" />
<glyph unicode="&#xf0;" glyph-name="eth" horiz-adv-x="537" d="M123 559L105 602L232 653Q189 679 130 702L149 748Q240 716 300 681L423 731L445 680L352 645Q423 588 455 499T487 253Q487 126 431 60T264 -7T98 57T42 242Q42 374 103 443T279 513Q322 513
364 497Q338 570 281 618L123 559ZM380 439Q333 467 276 467Q211 467 174 408T137 242Q137 140 167 92T264 43Q332 43 362 92T392 253Q392 379 380 439Z" />
<glyph unicode="&#xf1;" glyph-name="ntilde" horiz-adv-x="594" d="M33 0L37 39Q80 46 108 66V374Q108 414 92 428T33 445L36 477Q58 481 168 513L187 503L197 436Q253 513 339 513Q417 513 461 474T505 364V66Q530 47 580 37L576 0H339L342 37Q382 43 413 66V354Q413
461 321 461Q284 461 250 436T200 371V66Q227 46 275 37L271 0H33ZM174 598Q157 602 139 619Q152 650 180 679T247 708Q271 708 310 687T370 665Q404 665 441 708Q458 701 476 687Q463 655 435 627T371 598Q343 598 304 619T244 641Q211 641 174 598Z" />
<glyph unicode="&#xf2;" glyph-name="ograve" horiz-adv-x="528" d="M264 42Q332 42 362 91T392 253Q392 364 362 413T264 463T167 414T137 253T167 92T264 42ZM374 -8T264 -8T98 58T41 253Q41 380 97 446T264 513T430 447T487 253Q487 125 431 59ZM300 565L188
655Q161 677 161 697Q161 711 172 722T200 734Q223 734 234 716L324 591L300 565Z" />
<glyph unicode="&#xf3;" glyph-name="oacute" horiz-adv-x="528" d="M264 42Q332 42 362 91T392 253Q392 364 362 413T264 463T167 414T137 253T167 92T264 42ZM374 -8T264 -8T98 58T41 253Q41 380 97 446T264 513T430 447T487 253Q487 125 431 59ZM226 565L202
591L292 716Q303 734 326 734Q342 734 353 723T365 697Q365 677 338 655L226 565Z" />
<glyph unicode="&#xf4;" glyph-name="ocircumflex" horiz-adv-x="528" d="M264 42Q332 42 362 91T392 253Q392 364 362 413T264 463T167 414T137 253T167 92T264 42ZM374 -8T264 -8T98 58T41 253Q41 380 97 446T264 513T430 447T487 253Q487 125 431 59ZM155 575L131
601L231 716Q245 733 264 733Q284 733 298 716L398 601L374 575L264 658L155 575Z" />
<glyph unicode="&#xf5;" glyph-name="otilde" horiz-adv-x="528" d="M264 42Q332 42 362 91T392 253Q392 364 362 413T264 463T167 414T137 253T167 92T264 42ZM374 -8T264 -8T98 58T41 253Q41 380 97 446T264 513T430 447T487 253Q487 125 431 59ZM132 598Q115
602 97 619Q110 650 138 679T205 708Q229 708 268 687T328 665Q362 665 399 708Q417 701 434 687Q421 655 393 627T329 598Q301 598 262 619T202 641Q169 641 132 598Z" />
<glyph unicode="&#xf6;" glyph-name="odieresis" horiz-adv-x="528" d="M264 42Q332 42 362 91T392 253Q392 364 362 413T264 463T167 414T137 253T167 92T264 42ZM374 -8T264 -8T98 58T41 253Q41 380 97 446T264 513T430 447T487 253Q487 125 431 59ZM225 596T174
596T123 653Q123 709 174 709T225 653Q225 596 174 596ZM353 596Q303 596 303 653Q303 709 353 709Q405 709 405 653Q405 596 353 596Z" />
<glyph unicode="&#xf7;" glyph-name="divide" horiz-adv-x="545" d="M270 407Q251 407 237 421T222 455T236 489T270 504Q290 504 305 490T320 455Q320 436 305 422T270 407ZM222 136Q222 156 236 171T270 186Q290 186 305 171T320 136Q320 117 305 103T270 88Q251
88 237 102T222 136ZM62 268V325H483V268H62Z" />
<glyph unicode="&#xf8;" glyph-name="oslash" horiz-adv-x="528" d="M34 3L89 69Q41 135 41 253Q41 380 97 446T264 513Q359 513 415 463L463 521L471 522Q481 516 494 500L440 435Q487 368 487 253Q487 125 431 59T264 -8Q169 -8 113 42L64 -18L57 -19Q45 -9
34 3ZM148 140L367 405Q337 463 264 463Q196 463 167 414T137 253Q137 181 148 140ZM381 364L162 100Q191 42 264 42Q332 42 362 91T392 253Q392 324 381 364Z" />
<glyph unicode="&#xf9;" glyph-name="ugrave" horiz-adv-x="588" d="M89 166V376Q89 416 73 430T14 447L17 479Q58 486 160 516L181 505V154Q181 41 274 41Q302 41 333 61T388 126V376Q388 416 372 430T313 447L316 479Q357 486 459 516L480 505V66Q505 47 555
37L551 0H408L397 68Q339 -8 262 -8Q89 -8 89 166ZM320 565L208 655Q181 677 181 697Q181 711 192 722T220 734Q243 734 254 716L344 591L320 565Z" />
<glyph unicode="&#xfa;" glyph-name="uacute" horiz-adv-x="588" d="M89 166V376Q89 416 73 430T14 447L17 479Q58 486 160 516L181 505V154Q181 41 274 41Q302 41 333 61T388 126V376Q388 416 372 430T313 447L316 479Q357 486 459 516L480 505V66Q505 47 555
37L551 0H408L397 68Q339 -8 262 -8Q89 -8 89 166ZM246 565L222 591L312 716Q323 734 346 734Q362 734 373 723T385 697Q385 677 358 655L246 565Z" />
<glyph unicode="&#xfb;" glyph-name="ucircumflex" horiz-adv-x="588" d="M89 166V376Q89 416 73 430T14 447L17 479Q58 486 160 516L181 505V154Q181 41 274 41Q302 41 333 61T388 126V376Q388 416 372 430T313 447L316 479Q357 486 459 516L480 505V66Q505 47
555 37L551 0H408L397 68Q339 -8 262 -8Q89 -8 89 166ZM175 575L151 601L251 716Q265 733 284 733Q304 733 318 716L418 601L394 575L284 658L175 575Z" />
<glyph unicode="&#xfc;" glyph-name="udieresis" horiz-adv-x="588" d="M89 166V376Q89 416 73 430T14 447L17 479Q58 486 160 516L181 505V154Q181 41 274 41Q302 41 333 61T388 126V376Q388 416 372 430T313 447L316 479Q357 486 459 516L480 505V66Q505 47
555 37L551 0H408L397 68Q339 -8 262 -8Q89 -8 89 166ZM245 596T194 596T143 653Q143 709 194 709T245 653Q245 596 194 596ZM373 596Q323 596 323 653Q323 709 373 709Q425 709 425 653Q425 596 373 596Z" />
<glyph unicode="&#xfd;" glyph-name="yacute" horiz-adv-x="550" d="M227 -86L253 -5L76 427Q62 462 -1 473L2 506H237L234 474Q192 469 170 450L295 122L402 450Q379 467 338 474L341 506H551L548 474Q478 464 468 437L283 -99Q256 -177 222 -210T137 -243Q95
-243 67 -220T38 -160Q38 -131 53 -115T91 -99Q111 -99 129 -111Q116 -129 116 -148Q116 -164 126 -174T152 -185Q175 -185 192 -162T227 -86ZM247 565L223 591L313 716Q324 734 347 734Q363 734 374 723T386 697Q386 677 359 655L247 565Z" />
<glyph unicode="&#xfe;" glyph-name="thorn" horiz-adv-x="558" d="M25 -228L29 -189Q72 -182 100 -162V598Q100 632 83 645T25 661L28 693Q69 700 171 730L192 719V443Q236 512 325 512Q517 512 517 263Q517 131 456 62T280 -8Q238 -8 192 9V-162Q219 -182 267
-191L263 -228H25ZM192 262V59Q228 38 283 38Q348 38 385 97T422 263Q422 367 396 416T315 466Q192 466 192 262Z" />
<glyph unicode="&#xff;" glyph-name="ydieresis" horiz-adv-x="550" d="M227 -86L253 -5L76 427Q62 462 -1 473L2 506H237L234 474Q192 469 170 450L295 122L402 450Q379 467 338 474L341 506H551L548 474Q478 464 470 442L283 -99Q256 -177 222 -210T137 -243Q95
-243 67 -220T38 -160Q38 -131 53 -115T91 -99Q111 -99 129 -111Q116 -129 116 -148Q116 -164 126 -174T152 -185Q175 -185 192 -162T227 -86ZM246 596T195 596T144 653Q144 709 195 709T246 653Q246 596 195 596ZM374 596Q324 596 324 653Q324 709 374 709Q426
709 426 653Q426 596 374 596Z" />
</font>
</defs>
</svg>
